<?xml version="1.0" encoding="UTF-8"?>
<svg version="1.1" xmlns="http://www.w3.org/2000/svg" width="474" height="97">
<path d="M0 0 C156.42 0 312.84 0 474 0 C474 32.01 474 64.02 474 97 C317.58 97 161.16 97 0 97 C0 64.99 0 32.98 0 0 Z " fill="#FDFDFD" transform="translate(0,0)"/>
<path d="M0 0 C4.95 0 9.9 0 15 0 C18.68357533 7.8933757 21.93169186 15.84706695 25 24 C28.3 16.08 31.6 8.16 35 0 C40.28 0 45.56 0 51 0 C51 14.52 51 29.04 51 44 C47.04 44 43.08 44 39 44 C38.67 36.41 38.34 28.82 38 21 C35.03 28.26 32.06 35.52 29 43 C26.36 43 23.72 43 21 43 C16.545 31.12 16.545 31.12 12 19 C11.67 26.92 11.34 34.84 11 43 C7.37 43 3.74 43 0 43 C0 28.81 0 14.62 0 0 Z " fill="#1B1717" transform="translate(63,25)"/>
<path d="M0 0 C6.001875 -0.0928125 6.001875 -0.0928125 12.125 -0.1875 C13.37555176 -0.21481201 14.62610352 -0.24212402 15.91455078 -0.27026367 C26.23703233 -0.34759497 26.23703233 -0.34759497 31 3 C34.40390898 6.6799016 35.8690782 9.26528618 36.25 14.3125 C35.92487142 19.10814653 34.52597883 22.30446797 31.3125 25.875 C30.6628125 26.431875 30.6628125 26.431875 30 27 C31.35284811 31.79646149 33.46712974 35.78228985 35.9765625 40.046875 C37 42 37 42 37 44 C32.71 44 28.42 44 24 44 C23.54109375 43.07316406 23.0821875 42.14632812 22.609375 41.19140625 C21.99030319 39.98140226 21.37047172 38.77178673 20.75 37.5625 C20.44964844 36.95083984 20.14929688 36.33917969 19.83984375 35.70898438 C18.83355002 33.69960437 18.83355002 33.69960437 17 31 C15.68 30.67 14.36 30.34 13 30 C13 34.62 13 39.24 13 44 C8.71 44 4.42 44 0 44 C0 29.48 0 14.96 0 0 Z " fill="#1E1B1B" transform="translate(167,25)"/>
<path d="M0 0 C10 0 10 0 12.48046875 2.01953125 C13.04378906 2.94121094 13.60710937 3.86289062 14.1875 4.8125 C14.82042969 5.80507813 15.45335937 6.79765625 16.10546875 7.8203125 C16.73066406 8.86960937 17.35585938 9.91890625 18 11 C19.33114701 13.06391174 20.66436028 15.12649282 22 17.1875 C22.99 18.775625 23.98 20.36375 25 22 C25.33 14.74 25.66 7.48 26 0 C29.96 0 33.92 0 38 0 C38 14.52 38 29.04 38 44 C27 44 27 44 23.87890625 40.9296875 C23.06627338 39.60207983 22.29440322 38.24876562 21.5625 36.875 C21.16869141 36.20984375 20.77488281 35.5446875 20.36914062 34.859375 C19.59325231 33.54692711 18.833138 32.22500557 18.09033203 30.89355469 C17.0423307 29.07351476 15.91026556 27.3585421 14.71484375 25.6328125 C13 23 13 23 13 21 C12.34 21 11.68 21 11 21 C11 28.59 11 36.18 11 44 C7.37 44 3.74 44 0 44 C0 29.48 0 14.96 0 0 Z " fill="#369D3A" transform="translate(325,25)"/>
<path d="M0 0 C4.29 0 8.58 0 13 0 C13 5.61 13 11.22 13 17 C17.95 17 22.9 17 28 17 C28 11.39 28 5.78 28 0 C31.96 0 35.92 0 40 0 C40 14.52 40 29.04 40 44 C36.04 44 32.08 44 28 44 C28 38.39 28 32.78 28 27 C23.05 27 18.1 27 13 27 C13 32.61 13 38.22 13 44 C8.71 44 4.42 44 0 44 C0 29.48 0 14.96 0 0 Z " fill="#3B9F3F" transform="translate(261,25)"/>
<path d="M0 0 C5.61 0 11.22 0 17 0 C18.99966863 5.78209656 20.99333979 11.56621231 22.98144531 17.35229492 C23.65882955 19.32096316 24.33785841 21.28906629 25.01855469 23.2565918 C25.99585452 26.08235598 26.96725039 28.91008979 27.9375 31.73828125 C28.24373291 32.61962234 28.54996582 33.50096344 28.86547852 34.40901184 C29.28591431 35.6399482 29.28591431 35.6399482 29.71484375 36.89575195 C29.96355225 37.61745071 30.21226074 38.33914948 30.46850586 39.0827179 C31 41 31 41 31 44 C26.71 44 22.42 44 18 44 C17.34 41.03 16.68 38.06 16 35 C11.05 35 6.1 35 1 35 C0.34 37.97 -0.32 40.94 -1 44 C-5.29 44 -9.58 44 -14 44 C-12.75056411 37.98352551 -11.21158393 32.25950985 -9.1796875 26.46484375 C-8.91616486 25.70071671 -8.65264221 24.93658966 -8.38113403 24.14930725 C-7.55036362 21.74374715 -6.71281809 19.34061338 -5.875 16.9375 C-5.30553688 15.29247435 -4.73652246 13.6472933 -4.16796875 12.00195312 C-2.78464124 7.99917601 -1.39214685 3.99976137 0 0 Z " fill="#1C1818" transform="translate(132,25)"/>
<path d="M0 0 C1.58206057 0.00667536 3.16410534 0.0186375 4.74609375 0.03515625 C5.55240234 0.03966797 6.35871094 0.04417969 7.18945312 0.04882812 C9.18753131 0.06065107 11.18557158 0.07858711 13.18359375 0.09765625 C15.04252815 5.7185749 16.89372294 11.34196062 18.73779297 16.96777344 C19.36620425 18.88123225 19.9967245 20.79399978 20.62939453 22.70605469 C21.53843701 25.45458813 22.43986501 28.2055187 23.33984375 30.95703125 C23.62420288 31.81133728 23.90856201 32.66564331 24.20153809 33.5458374 C24.46180786 34.34636536 24.72207764 35.14689331 24.99023438 35.97167969 C25.22117798 36.67339294 25.45212158 37.3751062 25.69006348 38.0980835 C26.18359375 40.09765625 26.18359375 40.09765625 26.18359375 44.09765625 C21.89359375 44.09765625 17.60359375 44.09765625 13.18359375 44.09765625 C12.52359375 41.45765625 11.86359375 38.81765625 11.18359375 36.09765625 C6.56359375 36.09765625 1.94359375 36.09765625 -2.81640625 36.09765625 C-3.80640625 38.73765625 -4.79640625 41.37765625 -5.81640625 44.09765625 C-9.77640625 44.09765625 -13.73640625 44.09765625 -17.81640625 44.09765625 C-17.20584012 38.64117039 -15.89216257 33.76429805 -14.12890625 28.57421875 C-13.86634033 27.78743744 -13.60377441 27.00065613 -13.33325195 26.19003296 C-12.781333 24.54028325 -12.22651914 22.89149944 -11.66894531 21.24365234 C-10.81266757 18.7116008 -9.96619731 16.17642531 -9.12109375 13.640625 C-8.58259998 12.0349654 -8.04355717 10.42948981 -7.50390625 8.82421875 C-7.24971924 8.06388336 -6.99553223 7.30354797 -6.73364258 6.52017212 C-4.56013254 0.11668712 -4.56013254 0.11668712 0 0 Z " fill="#379D3A" transform="translate(430.81640625,24.90234375)"/>
<path d="M0 0 C4.19511284 2.56018664 7.32250403 6.04111041 8.484375 10.83984375 C8.59652344 11.59007812 8.70867187 12.3403125 8.82421875 13.11328125 C6.88740714 13.19435708 4.94962535 13.252506 3.01171875 13.30078125 C1.93277344 13.33558594 0.85382813 13.37039062 -0.2578125 13.40625 C-3.61197507 13.06948669 -3.99810277 12.48005787 -6.17578125 10.11328125 C-8.34842252 9.60329027 -8.34842252 9.60329027 -10.67578125 9.67578125 C-11.44921875 9.65644531 -12.22265625 9.63710938 -13.01953125 9.6171875 C-15.29346589 9.95345282 -15.29346589 9.95345282 -16.94140625 11.734375 C-18.55563528 14.8453417 -18.50583522 17.1229281 -18.42578125 20.61328125 C-18.4103125 21.73734375 -18.39484375 22.86140625 -18.37890625 24.01953125 C-18.21257651 26.55286113 -17.90999652 28.69747618 -17.17578125 31.11328125 C-15.57257151 31.30879463 -13.96815139 31.49440108 -12.36328125 31.67578125 C-11.46996094 31.78019531 -10.57664062 31.88460937 -9.65625 31.9921875 C-7.04202553 32.26986834 -7.04202553 32.26986834 -4.17578125 31.11328125 C-2.96696029 29.11311659 -2.96696029 29.11311659 -2.17578125 27.11328125 C-4.81578125 27.11328125 -7.45578125 27.11328125 -10.17578125 27.11328125 C-10.17578125 24.14328125 -10.17578125 21.17328125 -10.17578125 18.11328125 C-3.57578125 18.11328125 3.02421875 18.11328125 9.82421875 18.11328125 C10.19291801 25.48726647 10.26951105 31.00822072 5.82421875 37.11328125 C0.82924505 41.9801787 -4.03696556 43.4295795 -10.92578125 43.61328125 C-16.79895672 43.50258265 -20.71532385 42.75758857 -25.33203125 39.0625 C-30.49807798 33.60093789 -32.46050901 28.01932073 -32.80078125 20.55078125 C-32.47827024 13.33671915 -30.51717345 8.18814217 -25.16796875 3.265625 C-17.60417934 -2.63748002 -8.97621722 -3.84174814 0 0 Z " fill="#389E3C" transform="translate(400.17578125,25.88671875)"/>
<path d="M0 0 C3.84211799 2.30527079 5.65555332 4.13341412 8.125 7.875 C8.25390625 10.5703125 8.25390625 10.5703125 8.125 12.875 C6.35492286 12.95614106 4.58377902 13.01425505 2.8125 13.0625 C1.82636719 13.09730469 0.84023438 13.13210937 -0.17578125 13.16796875 C-3.34413649 12.8240807 -3.78062479 12.10900022 -5.875 9.875 C-7.92863606 9.5143369 -7.92863606 9.5143369 -10.0625 9.6875 C-11.320625 9.749375 -12.57875 9.81125 -13.875 9.875 C-13.45129332 12.36868215 -13.45129332 12.36868215 -11.875 14.875 C-8.55204599 16.16951371 -5.36383477 17.00983662 -1.90429688 17.81445312 C3.59938439 19.26546992 6.00766619 21.05127263 9.125 25.875 C10.15154726 29.98794264 9.54665995 33.7588413 8.0625 37.6875 C4.08021611 42.18362697 1.24783553 43.65922924 -4.6796875 44.26171875 C-6.09847062 44.31472823 -7.51790936 44.35224136 -8.9375 44.375 C-9.62223389 44.39344971 -10.30696777 44.41189941 -11.01245117 44.4309082 C-17.30801323 44.35416086 -20.85391789 41.89608211 -25.1875 37.5625 C-27.22632482 34.3154827 -27.57779205 31.66440134 -27.875 27.875 C-23.915 27.875 -19.955 27.875 -15.875 27.875 C-15.545 29.525 -15.215 31.175 -14.875 32.875 C-11.575 32.875 -8.275 32.875 -4.875 32.875 C-4.545 31.555 -4.215 30.235 -3.875 28.875 C-4.97199219 28.56046875 -6.06898437 28.2459375 -7.19921875 27.921875 C-8.65382468 27.4901855 -10.10824199 27.05786009 -11.5625 26.625 C-12.28373047 26.42003906 -13.00496094 26.21507813 -13.74804688 26.00390625 C-18.21443192 24.6578724 -21.43088127 23.16765653 -24.875 19.875 C-26.74185413 16.14129174 -26.42459 11.94071692 -25.875 7.875 C-24.1656457 4.31630117 -21.43576383 2.27554559 -18.25 0 C-12.36655642 -1.96114786 -5.88772864 -2.16441665 0 0 Z " fill="#1B1717" transform="translate(48.875,25.125)"/>
<path d="M0 0 C12.54 0 25.08 0 38 0 C38 2.97 38 5.94 38 9 C33.71 9 29.42 9 25 9 C25 20.55 25 32.1 25 44 C21.04 44 17.08 44 13 44 C13 32.45 13 20.9 13 9 C8.71 9 4.42 9 0 9 C0 6.03 0 3.06 0 0 Z " fill="#191515" transform="translate(207,25)"/>
<path d="M0 0 C3.96 0 7.92 0 12 0 C12 14.52 12 29.04 12 44 C8.04 44 4.08 44 0 44 C0 29.48 0 14.96 0 0 Z " fill="#359C39" transform="translate(307,25)"/>
<path d="M0 0 C6.22222222 -0.35897436 6.22222222 -0.35897436 9.4375 1.125 C11 3 11 3 11.4375 6.0625 C11.293125 7.031875 11.14875 8.00125 11 9 C7.91111478 11.05925681 7.29064073 11.2390374 3.8125 11.125 C1.9253125 11.063125 1.9253125 11.063125 0 11 C0 7.37 0 3.74 0 0 Z " fill="#EFEEEE" transform="translate(179,34)"/>
<path d="M0 0 C0.66 0 1.32 0 2 0 C2.50692692 1.5811292 3.00526443 3.16501383 3.5 4.75 C3.7784375 5.63171875 4.056875 6.5134375 4.34375 7.421875 C5 10 5 10 5 14 C2.36 14 -0.28 14 -3 14 C-2.40380045 9.13103697 -1.43023178 4.67209049 0 0 Z " fill="#EBF5EB" transform="translate(434,37)"/>
<path d="M0 0 C3.2645028 3.2645028 3.93236055 7.41047299 4.125 11.9375 C4.08375 12.618125 4.0425 13.29875 4 14 C1.36 14 -1.28 14 -4 14 C-3.52372025 12.04096255 -3.04388577 10.08278903 -2.5625 8.125 C-2.29566406 7.03445312 -2.02882812 5.94390625 -1.75390625 4.8203125 C-1 2 -1 2 0 0 Z " fill="#F1F1F1" transform="translate(140,37)"/>
<path d="M0 0 C0.33 0 0.66 0 1 0 C1 8.58 1 17.16 1 26 C0.67 26 0.34 26 0 26 C-0.06058594 24.73542969 -0.12117188 23.47085938 -0.18359375 22.16796875 C-0.26800904 20.50780129 -0.35265655 18.84764563 -0.4375 17.1875 C-0.47681641 16.35412109 -0.51613281 15.52074219 -0.55664062 14.66210938 C-0.59853516 13.85966797 -0.64042969 13.05722656 -0.68359375 12.23046875 C-0.73858032 11.12288208 -0.73858032 11.12288208 -0.79467773 9.99291992 C-0.94842141 7.792505 -0.94842141 7.792505 -2 5 C-1.0625 2.3125 -1.0625 2.3125 0 0 Z " fill="#DEDDDD" transform="translate(101,43)"/>
</svg>
