<?xml version="1.0" standalone="no"?>
<!DOCTYPE svg PUBLIC "-//W3C//DTD SVG 20010904//EN"
 "http://www.w3.org/TR/2001/REC-SVG-20010904/DTD/svg10.dtd">
<svg version="1.0" xmlns="http://www.w3.org/2000/svg"
 width="260.000000pt" height="86.000000pt" viewBox="0 0 260.000000 86.000000"
 preserveAspectRatio="xMidYMid meet">

<g transform="translate(0.000000,86.000000) scale(0.100000,-0.100000)"
fill="#000000" stroke="none">
<path d="M526 517 c-12 -9 -17 -23 -14 -42 2 -22 10 -31 37 -40 19 -6 37 -17
39 -23 4 -14 -34 -16 -43 -2 -7 12 -45 14 -45 3 1 -33 57 -57 99 -42 57 20 51
72 -10 90 -21 7 -39 16 -39 20 0 15 22 21 33 10 15 -15 47 -14 47 2 0 35 -68
51 -104 24z"/>
<path d="M660 451 c0 -74 2 -81 20 -81 17 0 20 7 21 43 l0 42 17 -42 c9 -24
22 -43 29 -43 8 0 22 19 33 43 l19 42 0 -42 c1 -36 4 -43 21 -43 18 0 20 7 20
80 0 79 0 80 -25 80 -21 0 -30 -9 -46 -47 l-21 -48 -18 45 c-14 35 -23 46 -44
48 l-26 3 0 -80z"/>
<path d="M886 453 c-24 -78 -24 -78 -4 -81 12 -2 25 3 30 12 11 20 54 21 62 1
8 -22 50 -20 43 3 -39 140 -40 142 -74 142 -31 0 -33 -2 -57 -77z m73 -15 c1
-5 -6 -8 -14 -8 -16 0 -19 9 -8 36 6 16 7 16 14 -2 4 -10 8 -22 8 -26z"/>
<path d="M1040 450 c0 -79 0 -80 25 -80 20 0 25 5 25 25 0 14 4 25 8 25 5 0
14 -11 20 -25 8 -17 20 -25 37 -25 25 0 25 0 9 26 -13 19 -14 28 -5 37 6 6 11
26 11 44 0 40 -21 53 -84 53 l-46 0 0 -80z m74 44 c28 -11 13 -44 -20 -44 -2
0 -4 11 -4 25 0 27 1 28 24 19z"/>
<path d="M1190 510 c0 -15 7 -20 25 -20 24 0 25 -3 25 -60 0 -53 2 -60 20 -60
18 0 20 7 20 60 0 57 1 60 25 60 18 0 25 5 25 20 0 18 -7 20 -70 20 -63 0 -70
-2 -70 -20z"/>
<path d="M1400 450 c0 -64 3 -80 15 -80 10 0 15 10 15 30 0 28 3 30 35 30 32
0 35 -2 35 -30 0 -23 4 -30 20 -30 18 0 20 7 20 80 0 73 -2 80 -20 80 -16 0
-20 -7 -20 -35 0 -33 -2 -35 -35 -35 -33 0 -35 2 -35 35 0 24 -5 35 -15 35
-12 0 -15 -16 -15 -80z"/>
<path d="M1570 450 c0 -64 3 -80 15 -80 12 0 15 16 15 80 0 64 -3 80 -15 80
-12 0 -15 -16 -15 -80z"/>
<path d="M1630 450 c0 -73 2 -80 19 -80 17 0 20 8 23 48 l3 47 30 -47 c17 -28
38 -48 48 -48 15 0 17 10 17 80 0 73 -2 80 -19 80 -17 0 -20 -8 -23 -47 l-3
-48 -33 48 c-49 70 -62 64 -62 -33z"/>
<path d="M1832 514 c-32 -22 -43 -57 -31 -94 12 -34 35 -50 73 -50 31 0 66 32
66 60 0 16 -7 20 -30 20 -16 0 -30 -4 -30 -10 0 -5 7 -10 15 -10 9 0 12 -6 8
-16 -7 -19 -52 -15 -66 7 -13 21 -1 68 20 76 8 3 24 1 34 -5 10 -7 27 -12 36
-12 15 1 12 6 -10 25 -33 29 -54 31 -85 9z"/>
<path d="M1988 450 c-24 -74 -25 -80 -8 -80 10 0 20 7 24 15 3 9 18 15 36 15
18 0 33 -6 36 -15 4 -8 14 -15 24 -15 17 0 16 6 -8 80 -24 73 -29 80 -52 80
-23 0 -28 -7 -52 -80z m67 3 c5 -19 2 -23 -14 -23 -23 0 -24 3 -15 38 7 26 18
20 29 -15z"/>
</g>
</svg>
